<?xml version="1.0" encoding="UTF-8"?>
<svg width="124px" height="124px" viewBox="0 0 124 124" version="1.1" xmlns="http://www.w3.org/2000/svg" xmlns:xlink="http://www.w3.org/1999/xlink">
    <!-- Generator: Sketch 64 (93537) - https://sketch.com -->
    <title>icons/big_play_fabric</title>
    <desc>Created with Sketch.</desc>
    <g id="Zeplin" stroke="none" stroke-width="1" fill="none" fill-rule="evenodd">
        <g id="Macq_Conf_Intro_HD" transform="translate(-1208.000000, -534.000000)">
            <g id="icons/big_play_fabric" transform="translate(1220.000000, 542.000000)">
                <path d="M55.7974432,37.7149849 L70.8950087,59.4554792 C71.8400715,60.8163696 71.5029766,62.6857138 70.1420863,63.6307766 C69.6396624,63.979682 69.0425889,64.1666667 68.4308988,64.1666667 L38.2357678,64.1666667 C36.5789136,64.1666667 35.2357678,62.8235209 35.2357678,61.1666667 C35.2357678,60.5549766 35.4227525,59.9579031 35.7716579,59.4554792 L50.8692234,37.7149849 C51.8142862,36.3540946 53.6836304,36.0169997 55.0445208,36.9620624 C55.3383827,37.1661332 55.5933724,37.421123 55.7974432,37.7149849 Z" id="Triangle" fill="#141516" fill-rule="evenodd" transform="translate(53.333333, 49.166667) rotate(90.000000) translate(-53.333333, -49.166667) "></path>
                <path d="M50,0 C77.6142375,0 100,22.3857625 100,50 C100,77.6142375 77.6142375,100 50,100 C22.3857625,100 0,77.6142375 0,50 C0,22.3857625 22.3857625,0 50,0 Z M41.3333333,31.0691012 C39.6764791,31.0691012 38.3333333,32.4122469 38.3333333,34.0691012 L38.3333333,34.0691012 L38.3333333,64.2642322 C38.3333333,64.8759222 38.520318,65.4729958 38.8692234,65.9754196 C39.8142862,67.3363099 41.6836304,67.6734048 43.0445208,66.7283421 L43.0445208,66.7283421 L64.7850151,51.6307766 C65.078877,51.4267058 65.3338668,51.171716 65.5379376,50.8778541 C66.4830003,49.5169638 66.1459054,47.6476195 64.7850151,46.7025568 L64.7850151,46.7025568 L43.0445208,31.6049913 C42.5420969,31.2560858 41.9450234,31.0691012 41.3333333,31.0691012 Z" id="Combined-Shape" fill="#FFFFFF" fill-rule="nonzero"></path>
            </g>
        </g>
    </g>
</svg>