<?xml version="1.0" encoding="UTF-8"?>
<svg width="88px" height="100px" viewBox="0 0 88 100" version="1.1" xmlns="http://www.w3.org/2000/svg" xmlns:xlink="http://www.w3.org/1999/xlink">
    <title>fabric_play_new</title>
    <g id="------" stroke="none" stroke-width="1" fill="none" fill-rule="evenodd">
        <g id="Macq_Conf_live_agenda_Open_Desktop" transform="translate(-884.000000, -353.000000)" fill="#FEFEFE">
            <g id="Group" transform="translate(878.000000, 353.000000)">
                <g transform="translate(6.000000, 0.000000)">
                    <polygon id="Fill-1" points="10.5203117 0 2.70306551 4.52810173 68.924243 42.9179555 50.7794925 53.3431506 50.7596903 53.3312693 26.3759285 67.4469333 26.3680077 76.9229433 85.2689741 42.8565687"></polygon>
                    <polygon id="Fill-2" points="-6.03961325e-14 9.15039589 -6.03961325e-14 94.8542922 8.22055086 99.6068188 8.24299335 76.4771959 8.24563364 22.9769479 8.2957992 23.0066512 8.2957992 22.9921296 26.4042457 33.4780515 26.4042457 33.4998339 50.7602844 47.615498 50.7906478 47.6326599 59.0303408 42.8992754 -6.03961325e-14 8.67712345"></polygon>
                    <polygon id="Fill-3" points="13.1662809 31.5829155 13.1662809 76.1107893 13.1662809 99.798174 13.1662809 99.7849725 87.7545455 56.6353314 87.7598261 47.1428196 87.7598261 47.1276379 21.415875 85.5003297 21.4330369 64.5944933 21.4561394 36.3486436 21.4561394 36.3268611 13.1662809 31.5650935"></polygon>
                </g>
            </g>
        </g>
    </g>
</svg>