<svg xmlns="http://www.w3.org/2000/svg" xmlns:xlink="http://www.w3.org/1999/xlink" width="30" height="25" viewBox="0 0 30 25">
    <defs>
        <path id="a" d="M30 3.456c-1.098.441-2.195.809-3.439.956a5.918 5.918 0 0 0 2.634-3.31c-1.17.663-2.415 1.177-3.805 1.472A5.946 5.946 0 0 0 21 .662c-3.293 0-6 2.647-6 6.03 0 .44 0 .882.146 1.396-4.975-.294-9.439-2.647-12.366-6.25-.512.81-.804 1.838-.804 2.941 0 2.133 1.097 3.971 2.707 5.074-.951 0-1.903-.294-2.707-.735v.073c0 2.941 2.122 5.368 4.829 5.883a5.68 5.68 0 0 1-1.61.22c-.439-.073-.805-.073-1.17-.147.804 2.353 3 4.118 5.56 4.191-2.048 1.618-4.61 2.574-7.463 2.574-.44 0-.951 0-1.463-.074 2.707 1.691 5.78 2.72 9.219 2.72 11.122 0 17.195-9.19 17.195-17.205v-.809A11.788 11.788 0 0 0 30 3.456z"/>
    </defs>
    <use fill="#D9D9D9" fill-rule="evenodd" xlink:href="#a"/>
</svg>
