<svg xmlns="http://www.w3.org/2000/svg" width="130" height="90" viewBox="0 0 130 90">
    <g fill="none" fill-rule="evenodd">
        <path fill="#666" d="M112.55 86.493V68.748l3.916.69 9.104-51.63L48.24 4.172l-9.104 51.63 63.817 11.254V84.8l-68.49-12.077a1.825 1.825 0 0 1-1.48-2.114L45.095 1.922A1.825 1.825 0 0 1 47.209.44l80.61 14.214a1.825 1.825 0 0 1 1.48 2.114l-12.112 68.688a1.825 1.825 0 0 1-2.114 1.48l-2.523-.444z"/>
        <path fill="#666" d="M21.812 86.535l-2.298.573a1.825 1.825 0 0 1-2.212-1.33L.428 18.103a1.825 1.825 0 0 1 1.33-2.213L42.284 5.786l-.746 3.788L4.221 18.88l12.683 50.87 4.908-1.224v18.01zm9.597-2.393V66.408h-1.105l62.791-15.656-8.016-32.15 3.4-.783 11.786 47.274a1.825 1.825 0 0 1-1.33 2.213L31.41 84.142z"/>
        <path fill="#666" d="M26.255 16.602h81.853c1.008 0 1.825.817 1.825 1.825v69.748A1.825 1.825 0 0 1 108.108 90H26.255a1.825 1.825 0 0 1-1.825-1.825V18.427c0-1.008.817-1.825 1.825-1.825z"/>
        <path fill="#454545" d="M27.919 20.097h78.523v52.427H27.919z"/>
        <path fill="#666" fill-rule="nonzero" d="M73.487 38.302l4.058-.76s-.112-.152-.26-.342c-.038.228-.15.38-.299.38s-.26-.19-.26-.455h-.112c-.037.265-.149.455-.298.455s-.297-.228-.297-.531c0-.304.111-.57.297-.57.112 0 .186.076.26.228l.038-.342c-.26-.304-.521-.57-.782-.76-1.042-.873-1.34-1.328-1.303-2.733.038-1.481 1.266-2.278 1.415-2.392.149-.114.968-1.33 1.638-1.671.707-.38 2.16-.076 2.83.228.893.38 6.663 3.417 6.663 3.417s.149-.57.223-.76c.633-1.404 2.494-5.277 3.09-6.606a.36.36 0 0 1-.149-.494c.075-.114.298-.152.41-.114l.856.532c.186.114.223.342.149.607l-.112.456c0 .038 0 .038.037.076l.186.038c.038.038.075.038.038.114 0 0-.41 1.86-.745 3.645.037.114 0 .152 0 .114 0 0-.223 1.177-.298 1.709-.037.114-.074.152-.186.114-.521-.152-.856-.266-.856-.228.037.19.335.304.41.341.074.038-.15.38-.15.38.559 0 1.713.266 2.271.57.484.266.857.76 1.117 1.29.037.077.335.19.484.342.186.114.26.76.223.798 0 .076.075.076.075.19 0 .076-.112.341-.149.417-.074.114-.186.038-.223.038-.038.038-.894.38-.894.38s-.223.228-.335.304c-.037.038-.074.038-.149 0l-.111-.038c.372.342.558.721.595 1.139.025-.025.025 0 0 .076v.114s6.775.95 7.26 1.025c1.34.19 1.488.532 1.451.684.112 0 .447.38.447.38.074.075.037.113-.037.113l-4.467.418s-.15-.076-.15-.038c-.037.038-3.2.342-4.578.456.074.151.149.265-.037.265 0 0-.931-.038-2.16-.076l.075.608-.372-.228-.075.038c.037-.076 0-.076 0-.076-.037.038-.037.076-.037.076l-.037-.152-.298-.19-.075.038h-.149l-.111-.038c0 .076 0 .152-.037.228.037.076.074.19.037.304-.037.076 0 .19 0 .304.037-.038.111-.038.186-.038.26 0 .41.341.372.76 0 .417-.149.759-.447.72-.186 0-.372-.227-.409-.531-.112.076-.186.114-.26.114-.075.228-.224.418-.41.418-.26 0-.41-.342-.41-.76s.15-.76.447-.721c.186 0 .335.228.41.493l.111-.531c-.037-.038-.037-.076-.037-.114v-.19l.037-.304v-.076c-1.898-.076-3.871-.152-4.206-.228-.335-.076-.447-.151-.633-.19-.075 0-1.713-.227-2.904-.38l-.26.38c.037.039.037.152-.038.152.075.038.038.152 0 .114l-.037.266c.037.038.112.114.112.152-.037.038-.037.076-.037.076 0 .076-.038.114-.112.152v.076c.112-.038.26-.114.372-.076.26 0 .372.342.372.721 0 .418-.223.722-.484.722-.186 0-.372-.228-.409-.532a.204.204 0 0 1-.186.114c-.075.266-.224.418-.41.418-.26 0-.446-.342-.446-.76 0-.417.186-.76.446-.76.186 0 .373.229.41.495l.074-.494c-.037-.038-.037-.076-.037-.114 0-.038.037-.076.037-.114-.037-.038-.074-.038-.074-.038s.037-.038.074-.038c-.037 0-.074-.038-.074-.038s.074-.038.112-.038l.037-.266c-.075 0-.037-.076 0-.076-.037-.075-.037-.19 0-.19l-.15-.455-.632-.076s-.149.911-.149.987c0 .076-.074.076-.074.114 0 .076-.038.114-.112.076l-1.638-.911.074-.608c-1.228-.152-4.057-.57-4.206-.607-.224-.038-.186-.19-.298-.19-.149 0-.298-.076-.335-.19-.037-.114-.074-.19-.149-.342-.037-.152.075-.303.335-.38zM35.053 51.514s0-.19.15-.266c.148-.076.409-.114.409-.114s-.112-.341-.112-.57v-.493c0-.076.074-.114.074-.114s.112-.266.224-.38c.111-.151.298-.341.298-.341s0-.19.223-.266c.335-.152 2.308-.95 2.978-1.253.67-.304 2.531-1.367 3.276-2.05.112-.114.223-.19.372-.266.186-.076.968-.418 1.564-.57.446-.152 1.973-.531 3.276-.721.744-.114 2.866-.266 3.983-.38.93-.076 3.909-.076 4.765-.038.744 0 2.866.19 3.388.266.52.076 1.265.418 1.265.418s.26 0 .41.076c.223.113 1.75 1.556 2.084 1.86.224.19.782.684 1.266 1.14v-.494c0-.19.112-.266.112-.266s.41-.19.558-.266c.186-.038.373 0 .373 0s.148.038.186.19c.037.114.074.342.074.493 0 .152-.074.494-.149.57-.074.076-.372.304-.484.342.298.19.633.304.856.342.15.037 6.478.835 8.637 1.177 4.542.759 8.525 1.936 8.972 2.088l1.042.38c.186.076.074.303.074.303v.342l.15.038c.111.038.111.266.111.418 0 .228-.037.531-.037.645-.075.304-.484 1.064-.484 1.064l.596.151c.446.114.52.57.52.57l.336.152c.186.076.186.266.186.266s-.223 1.405-.707 2.278c-.187.304-.41.494-.41.494s-.074.38-.223.57l-.335.34v.115c0 .114-.075.152-.075.152s-.893.645-1.489.987c-.856.531-2.27 1.139-2.27 1.139-.075.038-.224-.038-.224-.038s-.484.19-.707.342c-.224.152-.633.455-.968.607-.372.228-1.564.684-1.75.76 0 0-.93.57-1.117.607-.111.038-.297.038-.372 0l-.149-.076s-2.755 1.063-4.988 1.063c-1.638 0-1.973-.265-2.16-.417-.186-.152-.632-.57-.632-1.14 0-.151.037-.19.037-.19s-.223-.037-.41-.151c-.595 2.354-2.345 4.025-4.839 3.873-2.569-.114-5.174-2.81-5.212-5.848a.459.459 0 0 1-.335.038c-.93-.19-11.726-3.986-13.774-4.67-.186.684-.632 1.215-.819 1.405-.149.152-.297.266-.484.304-.186.038-1.19.114-1.489.114-.297 0-.744-.152-1.116-.456-.484-.418-.894-1.367-1.08-1.899-.186-.531-.26-1.329-.298-1.822a5.609 5.609 0 0 1-1.973-1.747l-.856-.304c-.186-.076-.223-.19-.223-.19l-.224-.417c-.037-.152.15-.266.15-.266z"/>
    </g>
</svg>
