<svg xmlns="http://www.w3.org/2000/svg" width="880" height="318" viewBox="0 0 880 318">
    <g fill="#B5B5B5" fill-rule="nonzero" opacity=".3">
        <path d="M333.6 61.243c-.64-1.2-15.12-28.463-54.96-28.463-37.52 0-54.32 27.183-55.04 28.383l-.24.4.24.4c.72 1.118 17.52 28.382 55.04 28.382 39.84 0 54.32-27.344 54.96-28.463l.16-.32-.16-.32zm-14.88 11.912c-7.52 5.997-20.48 13.112-40 13.112-30 0-46.16-19.028-50.48-24.785 4.32-5.756 20.48-24.784 50.48-24.784 32 0 46.64 19.188 50.4 24.784-1.6 2.399-4.64 7.116-10.4 11.673z"/>
        <path d="M278.56 38.377a23.108 23.108 0 0 0-23.2 23.185c0 12.872 10.24 23.186 23.12 23.186s23.28-10.473 23.28-23.266c0-12.872-10.32-23.105-23.2-23.105zm-.08 42.374c-10.64 0-19.12-8.555-19.12-19.189a19.148 19.148 0 0 1 19.2-19.188c10.64 0 19.2 8.395 19.2 19.108.08 10.634-8.56 19.269-19.28 19.269z"/>
        <path d="M287.04 53.088c-.32.24-.88.56-1.6.56-1.52 0-2.8-1.28-2.8-2.8 0-.159 0-.399.08-.559l.96-4.717h-5.04c-9.04 0-16.24 7.516-15.76 16.63.4 7.995 6.96 14.95 14.96 15.35 9.12.48 16.72-7.195 16.72-16.23 0-2.318-.48-4.557-1.44-6.635l-2-4.398-4.08 2.799zm-8.48 20.467c-6.56 0-12-5.437-12-11.993s5.52-12.072 12.08-12.072h.16c-.08.48-.16.88-.16 1.359a6.792 6.792 0 0 0 6.8 6.796c1.44 0 2.88-.48 3.92-1.28a11.54 11.54 0 0 1 1.12 4.957c0 6.477-5.36 12.233-11.92 12.233zM481.76 38.297c0-11.034-4.8-21.347-12.56-28.303C461.68 3.278 451.36 0 440.16 0c-12.64 0-24.4 4.237-32.16 12.392-6.72 7.036-9.36 16.07-9.36 25.985 0 16.55 8.8 26.144 14.88 33.26 1.76 2.078 3.44 4.077 4.64 5.836 2.72 3.997 3.2 10.233 3.2 10.313l.56 4.158h37.2l.32-4.078c0-.08.64-5.836 3.36-9.914 1.2-1.839 2.96-3.757 4.8-5.836 6.24-7.196 14.24-16.55 14.16-33.82zm-46.4 49.65c-.4-16.47-3.84-33.34-10.32-49.49 1.6-1.36 2.88-1.68 5.2-1.68 2.24 0 4 .8 5.12 2.399l.56.8h8.56l.56-.8c1.12-1.599 2.72-2.398 4.72-2.398 1.92 0 3.92.32 5.52 1.678-7.36 16.23-9.44 31.821-10.32 49.49h-9.6zm24-12.073c-3.36 5.037-3.92 12.072-3.92 12.072h-6.4c.88-18.149 2.88-32.94 10.48-49.09l.56-1.199-.88-.96c-2.48-2.798-5.84-3.837-9.36-3.837-2.8 0-5.52 1.12-7.28 3.198H438c-1.84-2.079-4.4-3.198-7.28-3.198-3.6 0-6.96 1.04-9.44 3.838l-.88.959.48 1.2c6.64 16.07 10.16 32.86 10.56 49.17h-6.4s-.24-7.516-3.6-12.553c-5.68-8.475-17.92-17.11-18.88-37.018-.96-20.787 16.72-34.458 37.6-34.458 20.88 0 36.88 13.591 37.68 34.379.72 20.467-12.88 29.022-18.48 37.497zM459.36 96.82v-1.678h-38.32l-.08 1.759c-.16 5.197.64 8.954 3.6 11.992-.72 4.558 1.76 7.676 3.76 9.674l.56.56h22.56l.56-.56c2-1.998 4.48-5.116 3.76-9.674 3.04-3.038 3.68-6.396 3.6-12.072zm-6.96 9.755l-.96.88.32 1.278c.64 2.32.08 4.238-1.92 6.397h-19.28c-2-2.16-2.56-4.078-1.92-6.397l.32-1.279-.96-.88c-2.16-1.838-3.04-3.997-3.04-7.435h30.4c.16 3.198-.8 5.597-2.96 7.436zM646.24 21.667l-22.88 8.714.8 3.198-56.8 20.788 2.88 8.155-21.76 7.835-.72-1.839-1.36-3.758-3.76 1.36-6.56 2.318-3.76 1.36 1.36 3.677 8.16 21.907 1.36 3.677 3.76-1.359 6.56-2.318 3.76-1.36-1.36-3.677-.72-1.84 21.76-7.834 1.28 3.518 1.36 3.677 3.76-1.359 4.8-1.759 2.88 7.196 5.84-2.079v20.468h-6.24l-10.56 35.978h4l9.52-31.98h3.28v31.98h4v-31.98h3.44l9.36 31.98h4l-10.32-35.978h-6.48V88.426l11.2-3.678-3.2-7.995 28-10.394 1.28 4.398 23.44-8.955-15.36-40.135zM552.4 91.704l-6.56 2.398-8.16-22.306 6.56-2.398.72 1.918h-.08l6.8 18.549h.08l.64 1.839zm1.68-7.036l-4-11.033 21.76-7.915 4 11.033-21.76 7.915zm53.28-2.318l-13.68 4.477-1.44-3.518 13.52-4.957 1.6 3.998zm-.08-8.795l-3.76 1.36-21.2 7.754-1.28-3.517-1.36-3.758-6.72-18.309 53.28-19.428 9.36 25.584-28.32 10.314zm33.6-8.315L628.96 32.7l15.12-5.517L656 59.723l-15.12 5.517zM738.48 64.76c-5.52-5.516-12.88-7.995-20.64-7.995s-14.96 2.559-20.48 7.995c-11.12 11.114-11.12 29.582 0 41.095 5.36 5.597 12.72 8.475 20.48 8.475s15.2-2.958 20.64-8.475c5.52-5.516 8.16-12.552 8.16-20.307-.08-7.756-2.64-15.271-8.16-20.788zm-2.88 38.297c-4.8 4.957-11.44 7.276-17.84 7.276s-12.8-2.32-17.6-7.276c-9.6-9.754-9.6-25.664 0-35.418 4.88-4.957 11.2-6.876 17.6-6.876 6.4 0 13.04 1.919 17.84 6.876 9.52 9.674 9.52 25.584 0 35.418z"/>
        <path d="M704.64 72.036c-3.52 3.518-5.2 8.475-5.2 13.512 0 5.037 1.68 9.514 5.2 13.112l2.8-2.799c-2.8-2.798-4.08-6.316-4.08-10.233 0-3.918 1.28-7.836 4.08-10.634l-2.8-2.958z"/>
        <path d="M772.64 129.36l-24.16-24.224c3.84-5.837 6.16-12.473 6.16-19.668 0-9.754-4-19.109-10.88-25.984-6.88-6.876-16.16-9.994-25.92-9.994-9.76 0-18.88 3.038-25.68 9.994-13.76 14.151-13.68 37.257 0 51.488 6.72 7.036 15.92 10.394 25.68 10.394 7.12 0 14.08-1.84 19.92-5.597l24.16 24.225a7.575 7.575 0 0 0 5.36 2.239c1.92 0 3.92-.72 5.36-2.239 2.96-2.878 2.96-7.675 0-10.633zm-77.68-21.106c-12.24-12.632-12.24-33.1 0-45.892 6.24-6.476 14.56-8.875 22.8-8.875 8.32 0 16.64 2.639 23.04 8.875 12.96 12.632 13.04 33.18 0 45.892-6.4 6.236-14.72 9.274-23.04 9.274-8.24 0-16.56-2.878-22.8-9.274zm74.8 29.022c-1.36 1.36-3.68 1.36-5.04 0l-23.76-23.825c.88-.72 1.84-1.52 2.64-2.399a35.83 35.83 0 0 0 2.4-2.638l23.76 23.825c1.44 1.36 1.44 3.598 0 5.037z"/>
        <path d="M711.36 98.34l-2 3.678c2.56 1.199 5.36 1.918 8.24 1.918h.16V99.94c-.56 0-4.4-.64-6.4-1.6zM229.76 235.536v-50.29c0-11.192-9.28-11.752-11.2-11.752-.24 0 0 0 0 0h-10.4v-8.955c0-7.435-6-13.431-13.44-13.431h-68.24c-7.44 0-13.44 5.996-13.44 13.431v78.272l6.8-6.236 15.6-14.31h3.2v6.955c0 6.316 5.12 11.433 11.44 11.433h60.32l19.44 19.188v-4.797c-.08-5.597-.08-13.592-.08-19.508zm-96.16-17.27l-16.64 15.591v-69.318c0-5.196 4.24-9.434 9.44-9.434h68.24c5.2 0 9.44 4.238 9.44 9.434v44.213c0 5.197-4.24 9.435-9.44 9.435H133.6v.08zm92.16 31.341l-13.92-12.952h-61.76a7.424 7.424 0 0 1-7.44-7.435v-6.956h52.16c7.44 0 13.44-5.996 13.44-13.432v-31.34h10c4.16 0 7.6 3.357 7.6 7.435v50.13c-.08 4.317 0 9.753-.08 14.55z"/>
        <path d="M136.16 170.296h48v3.998h-48zM136.16 180.69h48v3.998h-48zM136.16 191.883h48v3.998h-48zM136.16 202.277h34.4v3.998h-34.4zM353.04 232.658c.72 0 1.36.48 1.44 1.439.08.72.24 4.077 2.64 6.476 2.4 2.398 5.52 2.558 6.24 2.638 1.04.08 1.6.56 1.6 1.44 0 .879-.56 1.359-1.6 1.438-.72.08-3.84.24-6.24 2.639-2.4 2.398-2.56 5.676-2.64 6.476-.08 1.04-.72 1.439-1.44 1.439s-1.36-.48-1.44-1.44c-.08-.719-.24-4.077-2.64-6.475-2.4-2.399-5.52-2.559-6.24-2.639-1.04-.08-1.6-.56-1.6-1.439 0-.88.56-1.359 1.6-1.439.72-.08 3.84-.24 6.24-2.638 2.4-2.399 2.56-5.677 2.64-6.476.08-1.04.64-1.44 1.44-1.44 0 0-.08 0 0 0zm0-3.998c-2.88 0-5.12 2.079-5.44 5.037v.24c-.08.72-.24 2.638-1.52 3.838-1.2 1.199-2.96 1.359-3.68 1.439h-.24c-3.6.4-5.2 2.958-5.2 5.436 0 2.479 1.6 5.037 5.2 5.437h.24c.72.08 2.4.24 3.68 1.52 1.2 1.198 1.36 3.117 1.44 3.837v.24c.32 2.958 2.56 5.037 5.44 5.037 2.88 0 5.12-2.08 5.44-5.037v-.24c.08-.72.24-2.639 1.52-3.838 1.2-1.2 2.96-1.36 3.68-1.439h.24c3.6-.4 5.12-2.958 5.12-5.437 0-2.398-1.6-5.037-5.12-5.436h-.24c-.72-.08-2.4-.24-3.68-1.52-1.2-1.199-1.36-3.118-1.44-3.837v-.24c-.32-3.038-2.56-5.037-5.44-5.037zM670.48 134.318c.8 0 1.44.48 1.52 1.519.08.8.24 4.157 2.72 6.636 2.48 2.478 5.68 2.638 6.48 2.718 1.04.08 1.44.56 1.44 1.52 0 .879-.72 1.358-1.76 1.438-.8.08-3.6.24-6.08 2.719-2.48 2.478-2.64 5.916-2.72 6.636-.08 1.039-.72 1.519-1.52 1.519s-1.44-.48-1.52-1.52c-.08-.799-.24-4.157-2.72-6.635-2.48-2.479-5.68-2.639-6.48-2.719-1.04-.08-1.92-.56-1.92-1.439 0-.88.88-1.359 1.92-1.439.8-.08 4-.24 6.48-2.718 2.48-2.479 2.64-5.917 2.72-6.636 0-1.2.64-1.6 1.44-1.6h.08-.08zm0-3.998c-2.96 0-5.2 2.079-5.52 5.037v.24c-.08.72-.32 2.798-1.6 4.078-1.28 1.279-3.12 1.519-3.92 1.599h-.24c-3.6.4-5.44 3.038-5.44 5.436 0 2.399 1.84 5.117 5.44 5.437h.24c.8.08 2.56.24 3.92 1.599 1.28 1.28 1.52 3.278 1.6 4.077v.24c.32 2.959 2.56 4.877 5.52 4.877 2.96 0 5.2-1.918 5.52-4.877v-.24c.08-.72.32-2.798 1.6-4.077 1.28-1.28 3.12-1.52 3.92-1.6h.24c3.6-.399 4.88-3.037 4.88-5.436 0-2.398-1.28-5.037-4.88-5.436h-.24c-.8-.08-2.56-.24-3.92-1.6-1.28-1.279-1.52-3.277-1.6-4.077v-.24c-.32-2.958-2.56-5.037-5.52-5.037zM861.76 294.22c.88 0 1.6.56 1.68 1.679.08.88.32 4.717 3.12 7.515 2.8 2.799 6.4 2.959 7.28 3.119 1.2.16 1.92.64 1.92 1.678 0 .96-.72 1.52-1.92 1.68-.88.08-4.48.32-7.28 3.118s-2.96 6.635-3.12 7.515c-.16 1.2-.88 1.679-1.68 1.679-.88 0-1.6-.56-1.68-1.679-.08-.88-.32-4.717-3.12-7.515-2.8-2.799-6.4-2.959-7.28-3.119-1.2-.16-1.92-.64-1.92-1.679 0-.959.72-1.519 1.92-1.678.88-.08 4.48-.32 7.28-3.119 2.8-2.798 2.96-6.636 3.12-7.515.16-1.2.88-1.679 1.68-1.679zm0-3.998c-3.04 0-5.36 2.16-5.68 5.277v.32c-.08.88-.32 3.278-1.92 4.877-1.6 1.6-3.76 1.839-4.64 1.919h-.24c-3.76.4-5.44 3.118-5.44 5.676 0 2.559 1.68 5.197 5.44 5.677h.24c.96.08 3.12.32 4.72 1.919 1.6 1.599 1.84 3.997 1.92 4.877v.32c.32 3.118 2.64 5.276 5.68 5.276 3.04 0 5.36-2.158 5.68-5.276v-.32c.08-.88.32-3.278 1.92-4.877 1.6-1.6 3.76-1.84 4.64-1.919h.24c3.76-.4 5.44-3.118 5.44-5.677 0-2.558-1.68-5.196-5.44-5.676h-.24c-.96-.08-3.12-.32-4.72-1.919-1.6-1.599-1.84-3.997-1.92-4.877v-.32c-.32-3.118-2.64-5.277-5.68-5.277zM18.48 294.22c.88 0 1.6.56 1.68 1.679.08.88.32 4.717 3.12 7.515 2.8 2.799 6.4 2.959 7.28 3.119 1.2.16 2.4.64 2.4 1.678 0 .96-1.2 1.52-2.4 1.68-.88.08-4.48.32-7.28 3.118s-2.96 6.635-3.12 7.515c-.16 1.2-.88 1.679-1.68 1.679-.88 0-1.6-.56-1.68-1.679-.08-.88-.32-4.717-3.12-7.515-2.8-2.799-6.4-2.959-7.28-3.119-1.2-.16-2.16-.48-2.16-1.599 0-1.279 1.04-1.599 2.16-1.758.88-.08 4.48-.32 7.28-3.119 2.8-2.798 2.96-6.636 3.12-7.515.16-1.2.8-1.679 1.68-1.679h.08-.08zm0-3.998c-3.04 0-5.36 2.16-5.68 5.277v.32c-.08.88-.32 3.278-1.92 4.877-1.6 1.6-3.76 1.839-4.64 1.919H6c-3.76.4-5.76 2.718-5.76 5.197 0 3.118 2 5.676 5.76 6.076h.24c.96.08 3.12.32 4.72 1.919 1.6 1.599 1.84 3.997 1.92 4.877v.32c.32 3.118 2.64 5.276 5.68 5.276 3.04 0 5.36-2.158 5.68-5.276v-.32c.08-.88.32-3.278 1.92-4.877 1.6-1.6 3.76-1.839 4.64-1.919h.24c3.76-.4 5.92-3.118 5.92-5.677 0-2.478-2.16-5.196-5.92-5.596h-.24c-.96-.08-3.12-.32-4.72-1.919-1.6-1.599-1.84-3.997-1.92-4.877v-.32c-.32-3.118-2.64-5.277-5.68-5.277zM541.52 280.468l-4.8-3.597c.48-2.319.64-4.717.64-7.036 0-2.479-.24-4.877-.72-7.356l4.64-3.757a7.122 7.122 0 0 0 3.2-5.757c0-1.279-.4-2.558-1.04-3.677l-4.08-7.036c-1.28-2.159-3.6-3.518-6.08-3.518-1.12 0-2.24.24-3.2.8l-5.52 2.318c-3.68-3.198-7.84-5.596-12.4-7.116l-.96-5.996c-.16-3.678-3.28-6.636-6.96-6.636H496c-3.76 0-6.8 2.958-6.96 6.716l-.72 5.996a37.889 37.889 0 0 0-12.4 7.196l-5.68-2.159a7.13 7.13 0 0 0-3.12-.72c-2.48 0-4.8 1.36-6.08 3.519l-4.08 6.955c-.64 1.12-1.04 2.399-1.04 3.758.08 2.479 1.28 4.557 3.28 5.757l4.8 3.597a35.202 35.202 0 0 0-.72 7.116c0 2.398.24 4.877.72 7.276l-4.72 3.757c-3.12 1.999-4.08 6.156-2.24 9.354l4.08 7.116c1.28 2.159 3.6 3.518 6.08 3.518 1.12 0 2.24-.24 3.2-.8l5.44-2.318c3.68 3.198 7.92 5.596 12.48 7.195l.96 5.917c.16 3.678 3.28 6.636 6.96 6.636h8.24c3.76 0 6.8-2.958 6.96-6.716l.72-5.916c4.56-1.6 8.8-3.998 12.48-7.276l5.6 2.159c.96.48 2.08.72 3.12.72 2.48 0 4.8-1.36 6.08-3.519l4.08-7.115c2.16-3.198 1.12-7.356-2-9.355zm-1.2 7.356l-4.08 7.116c-.56.959-1.52 1.519-2.56 1.519-.48 0-1.04-.16-1.52-.4L524 292.94a33.069 33.069 0 0 1-15.2 8.794l-1.04 8.635a2.952 2.952 0 0 1-2.96 2.958h-8.24c-1.68 0-2.96-1.359-2.96-2.958l-1.36-8.635c-5.84-1.519-11.12-4.557-15.2-8.794l-8.08 3.438c-.48.24-.96.4-1.52.4-1.04 0-2-.56-2.56-1.52l-4.08-7.115c-.8-1.44-.32-3.278 1.12-4.078l6.88-5.516c-.8-2.799-1.2-5.757-1.2-8.795 0-3.038.4-5.916 1.2-8.715l-7.2-5.196c-1.44-.8-1.92-2.639-1.12-4.078l4.08-7.116c.56-.959 1.52-1.519 2.56-1.519.48 0 1.04.16 1.52.4l8.24 3.198c4.08-4.157 9.28-7.275 15.12-8.795l1.04-8.714a2.952 2.952 0 0 1 2.96-2.958h8.24c1.68 0 2.96 1.359 2.96 2.958l1.36 8.714a33.335 33.335 0 0 1 15.2 8.715l8.08-3.438c.48-.24.96-.4 1.52-.4 1.04 0 2 .56 2.56 1.52l4.08 7.115c.8 1.44.32 3.278-1.12 4.078L532 261.04c.8 2.799 1.2 5.757 1.2 8.875 0 3.038-.4 5.916-1.2 8.715l7.04 5.276c1.6.72 2.08 2.559 1.28 3.918z"/>
        <path d="M500.4 248.648c-11.76 0-21.04 9.834-21.04 21.587s9.28 20.947 21.04 20.947 21.28-9.514 21.28-21.267-9.52-21.267-21.28-21.267zm0 38.536c-9.52 0-17.04-7.435-17.04-16.95 0-9.513 7.44-17.589 17.04-17.589 9.6 0 17.28 7.756 17.28 17.27s-7.68 17.27-17.28 17.27zM440.96 203.875c.72 0 1.28.56 1.28 1.28l.56 3.757c2.56.64 4.8 1.999 6.56 3.758l3.52-1.52c.24-.08.4-.159.64-.159.48 0 .88.24 1.12.64l1.76 3.038c.32.64.16 1.359-.48 1.759l-2.96 2.398c.32 1.2.56 2.479.56 3.838 0 1.279-.16 2.558-.48 3.758l3.04 2.238c.64.32.8 1.12.48 1.76l-1.76 3.037c-.24.4-.64.64-1.12.64-.24 0-.4-.08-.64-.16l-3.52-1.36c-1.76 1.84-4 3.119-6.56 3.838l-.48 3.758c0 .72-.56 1.28-1.28 1.28h-3.6c-.72 0-1.28-.56-1.28-1.28l-.56-3.758c-2.56-.64-4.8-1.998-6.56-3.757l-3.44 1.519c-.24.08-.4.16-.64.16-.48 0-.88-.24-1.12-.64l-1.76-3.038c-.32-.64-.16-1.36.48-1.759l2.96-2.399c-.32-1.199-.48-2.478-.48-3.757 0-1.28.16-2.559.48-3.758l-3.04-2.239c-.64-.32-.8-1.119-.48-1.758l1.76-3.039c.24-.4.64-.64 1.12-.64.24 0 .4.08.64.16l3.52 1.36c1.76-1.76 4-3.118 6.56-3.758l.48-3.758c0-.72.56-1.279 1.28-1.279h3.44v-.16zm0-3.997h-3.52c-2.8 0-5.12 2.238-5.28 4.957l-.16 1.119c-1.28.56-2.48 1.28-3.6 2.159l-1.12-.4a5.65 5.65 0 0 0-2.24-.48c-1.92 0-3.68 1.04-4.56 2.639l-1.76 3.038c-1.44 2.398-.64 5.516 1.68 7.035l.88.72c-.08.64-.08 1.36-.08 2.079 0 .72.08 1.439.16 2.158l-.88.72c-1.36.96-2.16 2.399-2.32 4.078-.08 1.039.24 2.078.8 3.038l1.68 2.958c.96 1.599 2.72 2.638 4.56 2.638.8 0 1.6-.16 2.4-.56l1.04-.4c1.12.88 2.4 1.52 3.68 2.08l.16 1.119c.24 2.718 2.48 4.877 5.28 4.877h3.52c2.8 0 5.12-2.239 5.28-4.957l.16-1.12c1.28-.56 2.56-1.279 3.68-2.158l1.04.4c.72.32 1.52.48 2.24.48 1.92 0 3.68-1.04 4.56-2.639l1.76-3.038c1.44-2.399.64-5.517-1.68-7.036l-.88-.64c.08-.64.08-1.359.08-1.998 0-.72-.08-1.44-.16-2.239l.88-.72c2.24-1.518 2.96-4.637 1.6-7.035l-1.76-3.038c-.96-1.6-2.72-2.639-4.56-2.639-.8 0-1.6.16-2.4.56l-1.04.48c-1.12-.8-2.4-1.52-3.68-2.079l-.16-1.2c-.16-2.798-2.48-4.956-5.28-4.956zM727.36 221.305v3.997c7.12 0 12.88 5.757 12.88 12.872h4c.08-9.274-7.52-16.87-16.88-16.87z"/>
        <path d="M822.96 211.31c2.48-3.277 3.6-7.435 3.2-11.672-.8-8.235-7.36-14.951-15.6-14.951-1.6 0-4 .4-5.6.8-.8-8.555-7.6-15.91-16.4-15.91-2.32 0-4.64.479-6.72 1.358-2.88-5.356-8.64-8.874-14.8-8.874-6.4 0-12.24 3.678-15.04 9.274-2.88-2.158-6.48-3.438-10.16-3.438-9.28 0-16.88 7.596-16.88 16.87 0 .4 0 .88.08 1.28-1.12-.24-2.16-.32-3.36-.32-9.28 0-16.88 7.595-16.88 16.87 0 3.037.8 5.915 2.32 8.554-5.68 2.798-9.36 8.555-9.36 15.11 0 5.677 2.8 10.794 7.28 13.912-4.64 3.678-7.2 9.594-6.24 15.83 1.28 8.315 8.72 14.232 17.12 14.232h25.44s1.76-.08 2.56-.24a16.855 16.855 0 0 0 13.84-13.352h11.44c8.64-.64 13.68-8.875 15.36-11.993h35.12c9.28 0 16.4-7.515 16.4-16.79.08-8.234-5.36-15.03-13.12-16.55zm-41.92-37.017h-.32l.24-.08.08.08zm39.44 66.36h-12.24v-5.597c-.72-10.393-12.72-15.67-13.2-15.83l-1.6 3.678c.08.08 10.24 4.477 10.8 12.392v5.357h-36.8v-16.55c.64-7.995 10.72-12.472 10.88-12.472l-1.6-3.678c-.48.24-12.48 5.516-13.28 15.99v16.71h-12v3.917l28 .08c-1.92 3.039-5.92 7.596-11.12 7.995h-45.68v3.998l31.2-.08c-1.52 5.597-6.64 9.674-12.64 9.674h-25.68c-6.48 0-12.16-4.637-13.04-10.953-.8-5.357 1.84-10.394 6.4-13.032h18.64v-3.998h-18.08v-.08c-4.88-1.998-8-6.716-8-11.912 0-5.357 3.2-10.074 8.16-11.993H738c10.48-.72 15.76-12.712 16-13.192l-3.68-1.599c-.08.08-4.56 10.234-12.48 10.793H711.2c-1.68-2.238-2.56-4.957-2.56-7.755 0-7.116 5.84-12.952 12.96-12.952 1.76 0 3.44.32 5.04 1.04l3.92 1.758-1.12-4.157c-.32-1.2-.48-2.399-.48-3.598 0-7.116 5.84-12.952 12.96-12.952 3.6 0 7.04 1.52 9.52 4.157l2.4 2.559 1.04-3.358c1.6-5.517 6.72-9.274 12.4-9.274 5.12 0 9.76 3.038 11.84 7.755h-.08c0 7.116-5.76 12.872-12.88 12.872v4.317c8.96 0 16.32-6.955 16.96-15.67 1.84-.96 3.84-1.44 5.92-1.44 7.12 0 12.96 5.757 12.96 12.873 0 .4 0 .8-.08 1.2l-.4 3.117 3.2-1.199c1.68-.56 3.04-.88 5.44-.88 6.16 0 11.44 4.158 12.56 10.234.88 4.717-.8 9.195-4.24 12.153h-19.52v3.997h20.64c6.8 0 12.4 5.197 12.88 11.993.24 7.196-5.04 13.112-12 13.592zM159.36 73.715l-22.32 3.758-1.28.24-.88.879-36.16 36.138-2.8 2.798 2.8 2.798 18.48 18.47 2.8 2.797 2.8-2.798 36.16-36.138.88-.88.24-1.278 3.76-22.307.96-5.516-5.44 1.039zM136 83.149l7.84 7.835-34.48 34.46-7.84-7.836L136 83.15zm-16 52.928l-7.84-7.835 34.48-34.46 7.84 7.836L120 136.077zm36.56-38.057l-16.88-16.87 20.4-3.438-3.52 20.308zM658.4 270.235l-22-21.987-2.8-2.798-2.8 2.798-43.04 43.014-.88.88-.24 1.279-4.48 26.463-.96 5.517 5.52-.96 26.48-4.477 1.28-.24.88-.879 43.04-43.014 2.8-2.798-2.8-2.798zm-24.88-19.189l9.6 9.595-41.2 41.174-9.68-9.514 41.28-41.255zM590.8 293.74l-.32.32.32-.32zm-4.8 26.864l4.16-24.705 20.8 20.468-24.96 4.237zm28.48-6.396l-9.68-9.514 41.2-41.175 9.6 9.594-41.12 41.095zM626.56 175.892h4v3.998h-4zM364.96 66.359h4v3.998h-4zM413.76 264.638h4v3.998h-4zM284.96 243.051h4v3.998h-4zM648.16 97.54h4v3.998h-4zM521.76 36.778h4v3.998h-4zM577.76 249.447h4v3.998h-4zM692.96 292.621h4v3.998h-4zM814.56 264.638h4v3.998h-4zM63.36 278.23h4v3.998h-4zM417.76 168.697h4v3.998h-4zM230.56 128.721h4v3.998h-4zM182.56 278.23h4v3.998h-4zM380.8 166.538l-2.32-1.679-31.92-23.266v13.512h-20v3.998h24v-9.435l24.4 17.83-24.4 17.829v-8.635h-46.24l-9.76 15.19h-4c-1.04-5.916-6.72-10.233-13.12-9.274-4.72.72-8.56 4.558-9.44 9.275-1.2 7.195 4.32 13.431 11.28 13.431 5.6 0 10.32-4.077 11.28-9.434h6.24l9.76-15.19h40v12.472l34.24-24.945 1.12-.8-1.12-.879zm-99.36 34.699c-5.12 1.519-9.84-2.399-9.6-7.356.16-3.837 3.36-6.955 7.2-7.115 4.16-.16 7.6 3.198 7.6 7.355-.08 3.278-2.16 6.236-5.2 7.116zM330.56 143.113h4.8v3.998h-4.8z"/>
        <path d="M316.96 155.106h4.8v3.998h-4.8zM330.56 189.485h4.8v3.998h-4.8zM305.76 200.997a11.137 11.137 0 0 0-8.24-1.44c-4.48.88-8.08 4.478-8.88 8.955-1.52 7.996 5.44 14.871 13.44 13.352 4.32-.8 7.76-4.157 8.8-8.395.88-3.677-.08-7.195-2.16-9.754l7.12-10.233h9.92v-3.998h-12l-8 11.513zm-5.6 17.19a7.338 7.338 0 0 1-7.36-7.356 7.338 7.338 0 0 1 7.36-7.355c4.08 0 7.36 3.278 7.36 7.355a7.338 7.338 0 0 1-7.36 7.356zM278.72 180.45c5.68.16 10.48-3.998 11.44-9.355h35.6v-3.997h-35.6a11.346 11.346 0 0 0-11.2-9.354c-6.48 0-11.68 5.436-11.36 11.912.24 5.837 5.2 10.634 11.12 10.794zm.56-18.869c4.08 0 7.36 3.278 7.36 7.356a7.338 7.338 0 0 1-7.36 7.355 7.338 7.338 0 0 1-7.36-7.355 7.338 7.338 0 0 1 7.36-7.356zM279.28 154.386c5.68 0 10.48-4.238 11.28-9.754h4.88l8.64 14.39h8.96v-3.997h-6.72l-8.64-14.391h-7.2c-1.12-5.277-5.84-9.434-11.52-9.274-5.84.16-10.72 5.196-11.04 11.033-.32 6.636 4.96 11.993 11.36 11.993zm0-19.349c4.08 0 7.36 3.518 7.36 7.596a7.338 7.338 0 0 1-7.36 7.355 7.338 7.338 0 0 1-7.36-7.355c0-4.078 3.28-7.596 7.36-7.596zM298.16 136.556c2.72.4 5.2-.16 7.36-1.359l8.32 11.993h12v-3.998h-9.92l-7.36-10.553a10.921 10.921 0 0 0 2.56-8.475c-.56-5.437-5.04-9.754-10.56-10.154-7.12-.48-12.96 5.597-12.08 12.792.64 4.877 4.64 9.035 9.68 9.754zm2-18.628c4.08 0 7.36 3.278 7.36 7.355a7.338 7.338 0 0 1-7.36 7.356 7.338 7.338 0 0 1-7.36-7.356 7.338 7.338 0 0 1 7.36-7.355zM330.56 167.098h4.8v3.998h-4.8zM340.16 167.098h4.8v3.998h-4.8zM379.44 114.41c2.64 0 4.8 2.079 4.8 4.717 0 2.639-2.16 4.797-4.8 4.797-2.64 0-4.8-2.158-4.8-4.797-.08-2.638 2.16-4.717 4.8-4.717zm0-4.077c-4.88 0-8.8 3.917-8.8 8.794a8.772 8.772 0 0 0 8.8 8.795c4.88 0 8.8-3.918 8.8-8.795s-4-8.794-8.8-8.794zM493.84 76.033c2.64 0 4.8 2.08 4.8 4.718s-2.16 4.797-4.8 4.797c-2.64 0-4.8-2.159-4.8-4.797-.08-2.639 2.16-4.718 4.8-4.718zm0-4.077c-4.88 0-8.8 3.918-8.8 8.795a8.772 8.772 0 0 0 8.8 8.794c4.88 0 8.8-3.917 8.8-8.794-.08-4.877-4-8.795-8.8-8.795zM564.24 184.767c2.64 0 4.8 2.079 4.8 4.717 0 2.638-2.16 4.797-4.8 4.797-2.64 0-4.8-2.159-4.8-4.797-.08-2.638 2.16-4.717 4.8-4.717zm0-4.078c-4.88 0-8.8 3.918-8.8 8.795a8.772 8.772 0 0 0 8.8 8.795c4.88 0 8.8-3.918 8.8-8.795s-4-8.795-8.8-8.795zM770.64 277.51c2.64 0 4.8 2.079 4.8 4.717 0 2.639-2.16 4.797-4.8 4.797-2.64 0-4.8-2.158-4.8-4.797-.08-2.638 2.16-4.717 4.8-4.717zm0-4.077c-4.88 0-8.8 3.917-8.8 8.794a8.772 8.772 0 0 0 8.8 8.795c4.88 0 8.8-3.918 8.8-8.795s-4-8.794-8.8-8.794zM189.04 108.813c2.64 0 4.8 2.08 4.8 4.718s-2.16 4.797-4.8 4.797c-2.64 0-4.8-2.16-4.8-4.797-.08-2.639 2.16-4.718 4.8-4.718zm0-4.077c-4.88 0-8.8 3.918-8.8 8.795a8.772 8.772 0 0 0 8.8 8.794c4.88 0 8.8-3.917 8.8-8.794 0-4.877-4-8.795-8.8-8.795zM61.04 186.366c2.64 0 4.8 2.079 4.8 4.717 0 2.639-2.16 4.797-4.8 4.797-2.64 0-4.8-2.158-4.8-4.797-.08-2.638 2.16-4.717 4.8-4.717zm0-4.077c-4.88 0-8.8 3.917-8.8 8.794a8.772 8.772 0 0 0 8.8 8.795c4.88 0 8.8-3.918 8.8-8.795s-4-8.794-8.8-8.794z"/>
        <g>
            <path d="M386.972 310.726l11.03-11.031 2.828 2.827-11.031 11.03z"/>
            <path d="M386.974 302.47l2.829-2.83 11.024 11.025-2.829 2.828z"/>
        </g>
        <path d="M663.76 215.548l-2.88-2.798-4.08 4.077-4.08-4.077-2.88 2.798 4.16 4.158-4.16 4.077 2.88 2.798 4.08-4.077 4.08 4.077 2.88-2.798-4.16-4.077z"/>
        <g>
            <path d="M39.034 242.274l2.877-2.778 10.664 11.042-2.877 2.778z"/>
            <path d="M39.024 250.562l10.67-11.05 2.876 2.777-10.67 11.05z"/>
        </g>
        <g>
            <path d="M512.96 150.308h8v3.998h-8zM512.96 157.504h8v3.998h-8zM512.96 164.699h8v3.998h-8zM473.76 150.308h8v3.998h-8zM473.76 157.504h8v3.998h-8zM473.76 164.699h8v3.998h-8zM488.16 135.917h4v7.995h-4zM495.36 135.917h4v7.995h-4zM502.56 135.917h4v7.995h-4zM488.16 175.093h4v7.995h-4zM495.36 175.093h4v7.995h-4zM502.56 175.093h4v7.995h-4zM484.16 171.895h25.6V146.31h-25.6v25.584zm4-21.587h17.6v17.59h-17.6v-17.59z"/>
        </g>
        <g>
            <path d="M324.24 279.03h-80.8v5.596h-16.8v35.178h16.8v6.396h84.8V279.03h-4zm-93.68 36.777v-27.184h12.8v27.184h-12.8zm93.6 6.396h-76.8v-39.176h76.8v39.176z"/>
            <path d="M234.56 295.02h4v3.997h-4zM234.56 305.413h4v3.998h-4zM313.76 313.408h4V291.022h-64v22.306h60v.08zm-56-18.388h56v14.39h-56v-14.39z"/>
        </g>
        <path d="M117.2 262c-11.36 0-20.64 9.274-20.64 20.627s9.28 20.628 20.64 20.628c11.36 0 20.64-9.275 20.64-20.628S128.56 262 117.2 262zm0 37.257c-9.2 0-16.64-7.435-16.64-16.63 0-9.194 7.44-16.63 16.64-16.63s16.64 7.436 16.64 16.63c0 9.195-7.44 16.63-16.64 16.63z"/>
        <path d="M110.56 295.18l18.32-12.313-18.32-12.792v25.104zm4-17.43l7.28 5.037-7.28 4.877v-9.914z"/>
    </g>
</svg>
