<?xml version="1.0" encoding="UTF-8"?>
<svg width="36px" height="33px" viewBox="0 0 36 33" version="1.1" xmlns="http://www.w3.org/2000/svg" xmlns:xlink="http://www.w3.org/1999/xlink">
    <!-- Generator: Sketch 63.1 (92452) - https://sketch.com -->
    <title>heart</title>
    <desc>Created with Sketch.</desc>
    <g id="Page-1" stroke="none" stroke-width="1" fill="none" fill-rule="evenodd">
        <g id="heart" transform="translate(0.000000, -1.000000)">
            <rect id="Rectangle" fill-opacity="0" fill="#D8D8D8" x="0" y="0" width="36" height="36"></rect>
            <path d="M35.885,11.833 C35.885,6.383 31.467,1.965 26.018,1.965 C22.71,1.965 19.791,3.598 18,6.094 C16.209,3.598 13.29,1.965 9.983,1.965 C4.533,1.965 0.115,6.382 0.115,11.833 C0.115,12.605 0.213,13.353 0.381,14.074 C1.751,22.587 11.216,31.568 18,34.034 C24.783,31.568 34.249,22.587 35.617,14.075 C35.787,13.354 35.885,12.606 35.885,11.833 L35.885,11.833 Z" id="Path" fill="#DD2E44" fill-rule="nonzero"></path>
        </g>
    </g>
</svg>