<?xml version="1.0" encoding="UTF-8"?>
<svg width="33px" height="36px" viewBox="0 0 33 36" version="1.1" xmlns="http://www.w3.org/2000/svg" xmlns:xlink="http://www.w3.org/1999/xlink">
    <!-- Generator: Sketch 63.1 (92452) - https://sketch.com -->
    <title>thumbs_up</title>
    <desc>Created with Sketch.</desc>
    <g id="Page-1" stroke="none" stroke-width="1" fill="none" fill-rule="evenodd">
        <g id="thumbs_up" transform="translate(-1.000000, 0.000000)">
            <rect id="Rectangle" fill-opacity="0" fill="#D8D8D8" x="0" y="0" width="36" height="36"></rect>
            <path d="M33.956,17.916 C33.956,17.413 33.836,16.941 33.635,16.512 C32.294,12.186 26.016,12.502 17.086,12.291 C15.593,12.256 16.447,10.493 16.971,6.623 C17.312,4.106 15.689,0.241 12.961,0.241 C8.463,0.241 12.79,3.789 8.813,12.563 C6.688,17.251 1.938,14.625 1.938,19.334 L1.938,30.053 C1.938,31.886 2.118,33.648 4.696,33.938 C7.195,34.219 6.633,36 10.238,36 L28.282,36 C30.12,36 31.615,34.504 31.615,32.666 C31.615,31.904 31.348,31.21 30.917,30.648 C31.937,30.077 32.637,28.999 32.637,27.749 C32.637,26.989 32.371,26.295 31.941,25.734 C32.964,25.164 33.666,24.085 33.666,22.833 C33.666,21.924 33.298,21.1 32.705,20.497 C33.462,19.886 33.956,18.962 33.956,17.916 Z" id="Path" fill="#FFDB5E" fill-rule="nonzero"></path>
            <path d="M22.02,21.249 L30.624,21.249 C31.794,21.249 32.892,20.623 33.49,19.616 C33.736,19.201 33.599,18.664 33.183,18.417 C32.768,18.17 32.231,18.309 31.984,18.724 C31.701,19.203 31.178,19.499 30.623,19.499 L21.813,19.499 C20.94,19.499 20.23,18.789 20.23,17.916 C20.23,17.043 20.94,16.333 21.813,16.333 L27.7,16.333 C28.183,16.333 28.575,15.941 28.575,15.458 C28.575,14.975 28.183,14.583 27.7,14.583 L21.812,14.583 C19.974,14.583 18.479,16.078 18.479,17.916 C18.479,18.941 18.954,19.848 19.684,20.46 C19.069,21.065 18.686,21.905 18.686,22.833 C18.686,23.861 19.164,24.771 19.898,25.382 C19.287,25.986 18.908,26.823 18.908,27.749 C18.908,28.869 19.467,29.857 20.317,30.462 C19.793,31.051 19.465,31.818 19.465,32.666 C19.465,34.504 20.96,35.999 22.798,35.999 L28.282,35.999 C29.452,35.999 30.551,35.374 31.149,34.367 C31.396,33.952 31.259,33.415 30.844,33.168 C30.428,32.923 29.891,33.058 29.645,33.473 C29.36,33.952 28.837,34.249 28.282,34.249 L22.798,34.249 C21.925,34.249 21.215,33.539 21.215,32.666 C21.215,31.793 21.925,31.083 22.798,31.083 L29.304,31.083 C30.474,31.083 31.574,30.457 32.171,29.45 C32.418,29.034 32.281,28.497 31.866,28.251 C31.447,28 30.912,28.141 30.667,28.556 C30.378,29.043 29.868,29.333 29.304,29.333 L22.241,29.333 C21.368,29.333 20.658,28.622 20.658,27.749 C20.658,26.876 21.368,26.166 22.241,26.166 L30.332,26.166 C31.502,26.166 32.601,25.541 33.199,24.534 C33.446,24.119 33.309,23.582 32.894,23.335 C32.477,23.089 31.941,23.225 31.695,23.64 C31.406,24.126 30.896,24.416 30.332,24.416 L22.02,24.416 C21.147,24.416 20.437,23.706 20.437,22.833 C20.437,21.96 21.146,21.249 22.02,21.249 L22.02,21.249 Z" id="Path" fill="#EE9547" fill-rule="nonzero"></path>
        </g>
    </g>
</svg>