<svg xmlns="http://www.w3.org/2000/svg" width="116" height="90" viewBox="0 0 116 90">
    <g fill="none" fill-rule="evenodd">
        <path fill="#666" d="M1.5 0h39.49a1.5 1.5 0 0 1 1.233.647l5.487 7.937a1.5 1.5 0 0 0 1.234.647H114.5a1.5 1.5 0 0 1 1.5 1.5V88.5a1.5 1.5 0 0 1-1.5 1.5H1.5A1.5 1.5 0 0 1 0 88.5v-87A1.5 1.5 0 0 1 1.5 0z"/>
        <path fill="#404040" fill-rule="nonzero" d="M86.072 46.167v8.064L44.939 77.304v-.247l-7.245-4.03V27.074l.014.007-.014-.008L44.984 23l41.322 23.036-.234.131zM52.224 65.045l-.013-8.08 12.263-6.856.013.012 7.239-4.048-7.708-4.298L71.582 46l-7.206 4.038-19.4-10.816v.09l7.182 4.021.025 21.734.04-.022zm-7.285 12.012l.037.02V39.313l-.037-.02v37.765zm41.133-30.89v-.106L52.224 65.045v.04l33.848-18.918zm-22.054-4.392L37.708 27.08l.918.54 25.392 14.155z"/>
        <path fill="#666" fill-rule="nonzero" d="M52.675 65.044a.453.453 0 0 1-.231.396c-.341.19-.712-.027-.712-.372l-.025-21.469-6.951-3.892a.453.453 0 0 1-.232-.395v-.09c0-.345.37-.563.671-.395l19.18 10.693 6.28-3.519-6.857-3.83.44-.791 7.707 4.297c.31.173.31.618 0 .791l-7.239 4.048a.45.45 0 0 1-.114.045l-11.93 6.67.013 7.813zM44.72 77.453a.453.453 0 0 1-.232-.396V39.291c0-.345.37-.563.671-.395l.037.02c.143.08.231.232.231.396v37.766c0 .344-.37.563-.67.395l-.037-.02zm41.803-31.286a.453.453 0 0 1-.231.395L52.443 65.481a.451.451 0 0 1-.67-.395c-.001-.205.087-.356.23-.436l33.848-18.984c.301-.169.672.05.672.395v.106zm-22.725-3.996l-26.31-14.695.448-.786.91.534L64.237 41.38c.526.293.087 1.084-.439.79z"/>
    </g>
</svg>
