<svg xmlns="http://www.w3.org/2000/svg" width="73" height="90" viewBox="0 0 73 90">
    <g fill="none" fill-rule="evenodd">
        <path fill="#666" d="M1.5 0H55v16a2 2 0 0 0 2 2h16v70.5a1.5 1.5 0 0 1-1.5 1.5h-70A1.5 1.5 0 0 1 0 88.5v-87A1.5 1.5 0 0 1 1.5 0z"/>
        <path fill="#666" d="M57 0v15a1 1 0 0 0 1 1h15L57 0z"/>
        <path fill="#454545" fill-rule="nonzero" d="M73 55c-1.943-.616-3.592-.923-4.948-.923-4.181 0-5.814.512-8.566 1.317-1.81-1.043-3.622-2.14-5.049-3.458-3.896-3.622-7.135-8.616-9.165-14.16.11-.494.22-.933.33-1.372.603-2.689.987-11.031 1.042-11.415 0-.11 0-.22-.055-.33.11-.494.823-3.238.659-5.049-.165-1.427-1.427-4.61-4.336-4.61h-1.043c-2.14 0-3.842 1.098-4.336 2.744-1.372 4.94.055 12.294 2.525 21.789l-.604 1.482c-1.81 4.335-4.06 8.726-6.037 12.568l-.274.494c-2.36 4.555-4.446 8.342-6.312 11.47-.274-.274-.713-.33-1.097-.164 0 0-3.183 1.646-3.897 2.085-6.092 3.622-10.098 7.684-10.757 10.977-.274 1.372.165 2.58 1.153 3.128l1.701.823c.769.384 1.592.604 2.415.604 4.336 0 9.385-5.433 16.245-17.288 7.903-2.58 16.904-4.665 24.807-5.873C61.335 62.041 66.535 63.761 73 65V55zm0 6c-2.628-.758-4.791-1.492-6.489-2.203 1.745-.108 3.908-.04 6.489.203v2zM42.144 22.3c0-.824.054-2.58.329-4.007.055-.274.11-.494.165-.659.329.33.823 1.043 1.426 2.415.659 1.372.659 3.074.604 4.446 0 .11 0 .164.055.274-.11.44-.988 3.952-1.537 6.037-.658-3.128-1.042-6.092-1.042-8.507zM24.8 68.84c-4.28 6.586-7.19 9.44-9.22 10.483.933-2.195 3.951-6.147 8.342-9.714.164-.11.494-.44.878-.769zm32.202-11.244c.17.114.283.342.113.457-.057.228-.226.342-.396.4-8.885 1.654-16.354 3.766-22.692 6.45-.057.056-.114.056-.17.056-.113 0-.227-.057-.34-.171-.113-.171-.17-.4-.056-.57 1.245-2.227 2.716-4.853 4.244-7.707 3.056-5.765 4.753-9.989 5.998-13.413.114-.229.283-.343.453-.343.17 0 .34.114.453.286 2.49 4.965 5.659 9.132 9.507 12.386a48 48 0 0 0 2.886 2.169z"/>
    </g>
</svg>
