<svg xmlns="http://www.w3.org/2000/svg" width="101" height="101" viewBox="0 0 101 101">
    <g fill="none" fill-rule="evenodd">
        <path fill="#666" fill-rule="nonzero" d="M82.582 12.39h.034l-1.581 3.433 1.21.977 4.744-3.098-1.178-.976-3.094 2.188h-.034l1.615-3.434-1.11-.909-3.028 2.29-.034-.034 1.581-3.468-1.21-1.01-2.12 5.286 1.178.976zM85.542 20.234l3.364-1.65h.034l-2.153 3.131 1.009 1.145 5.214-2.222-.976-1.179-3.464 1.65v-.034l2.186-3.097-.942-1.077-3.397 1.717v-.034l2.153-3.165-1.01-1.178-3.027 4.848zM90.453 26.866l3.633-1.044-2.657 2.694.774 1.313 5.55-1.28-.774-1.313-3.666 1.01v-.033l2.69-2.66-.74-1.246-3.632 1.078 2.657-2.727-.807-1.38-3.801 4.241zM83.658 73.932c4.676-6.632 7.4-14.679 7.4-23.398 0-1.145-.066-2.29-.167-3.4-.505 0-1.11-.135-1.312-.203-1.346 0-2.456-1.279-3.801-.875.033-.404-1.077-2.323-1.548-1.481-.134.235.404 1.077.606 1.212 0 .168.1.572.269.74.37.37-.101.505 0 .741.504 0 .404-.101.538-.808.067.337.101.572.27.808.504.74-.102.034.066.606.673 0 1.312-.37 1.649-1.212.235.202-.068.471.202.606.235.27.437.37.302.673-.1.202.572.606.438-.168.74.202.605 1.111.067 1.448 0 .336-.336.37-.336.841 0 .303-.202.808-.471.91 0 .168-1.985 1.043-1.85 1.38-.337 0-1.582.336-1.783.808-.236 0-1.245.336-1.346.538-1.244 0-1.009-1.447-1.615-1.447.034-.236-.1-.37-.269-.606.37 0-1.21-2.93-1.21-3.4-.236-.135-.539-.943-.606-1.28-.336-.202-.673-.943-.807-1.347-.337-.235-1.144-1.212-1.279-1.65.471.068 1.211.135 1.211-.47-.336 0-.37-.405-.067-.405-.1-.404.202-.707.27-1.01.1-.404.268-.976.268-1.447-.47 0-.572.067-.942.202 0 .269-.807-.068-.941-.068-.169-.336-1.447.472-1.783-.269-.572-.505-.404-.909-.606-1.65-.1-.37-.605-.404-.908-.471-.875-.168-.236 1.044-.303 1.313.538 0-.336.673-.336 1.01-.908-.202-.606-1.212-1.144-1.448-.168-.269-.034-.471-.404-.471 0-.37.202-1.01-.201-1.145 0-.168-.74-.235-.875-.471-.47 0-1.581-1.818-1.917-1.212-.202.404.168.471.269.808.673-.135.605 1.145 1.446 1.01 0 .168.034.37.067.539.64-.135.539.471.875.471-.235.303-.942-.471-.74.168.101.37.067.707-.437 1.078 0-.404-.034-1.515-.471-1.515-.303-.606-1.178-.438-1.548-1.01-.302 0-.403-.943-.941-1.01-.101.134-.471.269-.606.269-.269.572-1.85.067-1.85.135-.034 0-.875 2.12-.942 2.39-.1.606-.572.606-.706 1.178-.068.27-1.817.135-1.817.37-.74-.235-1.379-.774-1.379-1.582-.067 0 .135-2.087.27-2.39.134.034.167.101.268.27.471-.169 1.548.1 1.548-.405.437 0 .571.202.403.539.404.067 1.144.168 1.144-.404-.235 0-.27-.034-.27-.27.808-.841-.605-1.582-.605-1.986-.269-.1-.84-.707-.437-.471.336.202 1.615.606 1.11-.27.202.034.807.64.807.068.169 0 .808-.404.27-.404.033-.303.033-.539.067-.74.84.47.37-.304.807-.607 0 .539.437-.269.74-.269.337-.505 1.077-.101 1.278-.673-.403-.135-.336-1.145-.336-1.515.471.067 1.043-.674 1.11-.169.034.202.034.741.135.808.74.37.538-.235.538-.606-.236 0-.572-.841-.606-1.279-.201.034-.538.101-.605.27-.74 0-1.211-.27-1.783-.27-.034-.101-.74-.875-.673-.875-.336-.674.471-.472.606-.505 0-.674 2.725-.539 2.86-1.616-.91 0 .941-1.549.941-1.515.605-.539.942-.977 1.682-1.044.336-.034 3.902-1.01 3.902-.572.37 0 2.59 0 2.59.269.37 0 1.144.404 1.413.27.437-.236 2.254.538 2.254 1.144-.841 0-2.019.202-3.129.202 0 .236.135.034 0 .27.37 0 1.077.976 1.01 1.346.538 0 .74-.404 1.143-.404 0 .471.538.539.673 0-.404 0-.202-.606-.135-.606.236-.438.74-.067 1.01-.438-7.502-8.888-18.67-14.544-31.15-14.544-10.562 0-20.183 4.04-27.415 10.673.168-.101.37-.202.438-.236 0 .404-.101.438.067.943.067 0 .47.64.47.942.37-.033.875-.269 1.01.202-.168 0-.37-.033-.538-.067.1 1.01-.471.404-.942.404 0-.067-1.447-.64-.875.337.168 0 .067.235.505.404.504.168 1.076.269 1.614.37.438.067.673-.067 1.077-.067 0-.068.908-.472.269-.472.1-.404-.067-.505-.471-.505.034-.404.942-.134 1.346-.134.302-.472 0-.438.269-.876.302-.538.672-.067.874-.606.303.101.572.27.673.674.235.202 1.446 2.02 1.446.74.438.135.64.977.673 1.414.808-.134.875-.707.875-1.346.202 0-.067-.303-.067-.404.302-.101.672.269.672-.135.135 0 .135.135.135.27.404.067.673-.034.942.033.168.067.1.976 0 1.28-.135.403-.908.437-.908.605-.875.674 1.042 1.01 1.345 1.414-.168 0-.875-.1-.875-.134-.437 0-1.48.471-1.85.134.539 0 .707-.64.808-1.279-.539-.168-1.11.135-1.245.606-.235.808-.774-.034-1.043.539-.1.033-1.076.471-1.076.336-1.077.135-.807 1.044-.807 2.054.437.27 1.311 1.01 1.278 1.414.975.135 1.312.236 2.186.37.068.135.37.27.538.337 0 .572.505.471 1.01.471 0-.74.84.606.941.876-.1 0 .202.74.27 1.01.302.303.941.235 1.076-.202-.404 0-.27-.472-.27-.741-.403-.27-.335-.808.068-.943 0 .37 1.38-.235.606-.538.202-.438.302-1.078 0-1.448-.202-.236-.438 0-.539-.337.539-.134.135-1.144.135-1.582.168-.067.606.101.606 0 .504 0 1.379.64 1.648-.135.84.404.168.775 1.076.472 0 .202 1.01 1.212 1.144 1.212 0 .033-.034.336.202.336 0 .202-.135-.134-.135.27.135 0 .808.134.808-.135.437 0 .74-.539.74-.943.269-.168.74 1.448 1.076 1.448.235.37 1.01.909 1.01 1.28.167.168.336.134.336.605.201 0 .605-.808.605-.067.202 0 .74.404.807.74-.47 0-.033.472-.269.472 0 .471-1.043.101-1.278.067-.404 1.38-2.321.337-3.498.707-.606.202-1.783 1.549-1.85 2.222.74 0 1.076-.64 1.715-.875.538 0 .64-.337 1.144-.471 0 .134.134.067.134.202-.942 0-.37.606-.1 1.077.268.438.571.572.975.606-.101.303-.606.067-.606.404-.168.067-.538.202-.605.337-1.077.134-.538.033-.471-.202.034.1.437 0 .404 0-.068-.337-.169-.27-.068-.472-.572 0-.874.27-1.345.27-.067.168-.471.538-.673.538-.135.404-.437 1.145-.807 1.414 0-.1-.942.606-.875.606-.202.337-.437.337-.538.876-.067.033-.336.942-.336 1.077-.404.27-.572 1.414-1.279 1.414-.437.842-1.21.74-1.21 1.852.268.269.37 1.447.437 1.818.1.471.269.942-.37.976-.034-.067-.471-.74-.404-.74 0-.27-.336-1.145-.538-1.415-.27-.37-.74.068-1.144-.1-.168-.337-1.278-.405-1.648-.405.067.236.235.337.269.606-.337.135-.505.27-.841.236-.572-.067-.505-.539-1.144-.471-1.009.1-1.715.942-1.715 1.952-.101 0-.101 1.987 0 1.987 0 .572.47.976.47 1.414.438 0 .942 1.01 1.413 1.01.034.37-.235.404.539.404 0-.034.403-.27.47-.539-.504-.135 0-.808.337-.943 0 .472.673-.168.673-.202.067-.033.74-.269.74-.269 0-.539.504.067.134.27-.37 0-.336.605-.538.605-.1.438-.27.808-.37 1.212-.135.505.303.573.168 1.044.538.101 1.077 0 1.615 0 0-.101-.034-.168-.067-.27.773 0 .067 1.482.538 1.482 0 .539.269.976.269 1.347.37.235.572.572.47 1.01.438.067 1.38.168 1.38-.404.673 0 .706.471.673.942 1.345 0 .504-1.346 1.076-1.346.067-.202.135-.27.27-.101.268.134.47-.27.706-.404.067-.034.302-.202.37-.202.202.1.202.067.302.202.37 0 .74-.202 1.043-.438.471.067.337 1.077 1.211 1.145.37.033 1.178.134 1.514-.101.067-.034.37.168.404.269.302 0 .269.27.403.236.168.168.404.202.538.538 0 .303.606.337.606.539.437.236-.135.27.505.471.37.101.706.303 1.076.337.135-.471.538.067.74.067.1.202.168.034.27.27.605.505.201.303.47.875.303.202.404.875.471 1.28-.235 0-.067.908-.067 1.01-.303 0 .74.538.74-.135.437.067.706.538 1.009.538-.168.404.47.707.47.068.64.067.472 1.01.405 1.346.538 0 .571-.37 1.11-.336.302 0 .639.235.74-.135.74.236 1.076.505 1.547.943.84.774 1.01 2.727.1 3.4 0 .135-.975 1.212-1.008 1.212 0 .135-.034 1.448-.068 1.448 0 .269-.201 1.75-.403 1.75 0 .741-.505.876-.673 1.583-.404.303-1.514.808-1.648 1.144-.303 0-.538.27-.875.27-.033.1-.706.74-.605.74-.068.472.033 1.583-.236 1.886-.168.202-.403.168-.303.505-.37 0 .034.269-.571.269-.37 0-1.043.539-1.043.976-.034.539-.168.943-.64 1.28 0 .202-.874.235-.874.74.067 0 0 .91 0 1.01-.269 0-.874.236-1.009.472-.875 0-.774.1-1.346.471 0 .135-.067.539-.201.539 0 .673-.471.067-.875.404.168 0 .336.673.27.673 0 .572-.37.64-.74 1.077-.17.135-.337.606-.472.606 0 .404-.202.741-.202 1.145.101 0 0 .168.068.337.201-.034.201-.27.269-.27 0-.336.538.202.202.202-.27.404-.572.438-.74 1.01-.471 0-.909 1.212-.471 1.212 0 .135.033.27.067.37a40.13 40.13 0 0 0 11.067 1.55c13.287 0 25.094-6.397 32.528-16.295-1.446-.135.706-1.852.706-1.145z"/>
        <path fill="#666" fill-rule="nonzero" d="M36.296 88.577c-.034-1.313 0-4.242.437-4.242 0-.202.168-1.077.336-1.077 0-.539.068-1.179 0-1.785-.201-.404.27-.909.404-1.515.774-.37.236-4.275.807-4.275 0-1.953.438-3.064.135-4.848.134 0-.875-1.078-.875-1.078-.975 0-1.648-1.582-1.648-2.255-.1-.303-.336-.775-.336-1.145.235 0-1.413-2.39-1.413-2.323-.841-.471.034-1.145.134-1.919-.74-.236 0-2.256.337-2.256a.625.625 0 0 1 .403-.538c.169.673.942-.337.337-.337 0-.438-.034-1.38 0-1.582 0-.674-.606-1.987-1.077-.606-.504-.236-1.749-.202-1.85-1.01.068-.404-.706-1.179-1.009-1.313.27-.674-1.345-1.583-1.917-1.583 0-.134-.303-.067-.404-.269-.605 0-.74-.808-1.413-.808-.773 0-1.547-.539-2.253-.539-.236-.471-1.346-.303-1.581-.808-.572 0-.808-1.11-.808-1.515-.033-.505-.403-2.222-1.11-2.222 0-.404-.942-1.144-1.21-1.144 0-.068-.37-.943-.539-.943 0-.303-1.01-1.582-1.177-1.01-.101.37.773.875.773 1.28.169 0 .841 1.312.976 1.548 1.514 2.525-1.11.808-1.11-.27-.337-.168-.875-1.447-.875-1.784-.202-.168-.774-1.38-.74-1.38 0-.808-.437-1.212-1.345-1.212-.034-.067-.774-1.145-.808-1.145 0-.336-.605-1.38-.942-1.515 0-.673-.37-1.548-.201-2.255 0-1.212-.034-2.694-1.043-3.636A40.43 40.43 0 0 0 9.856 50.5c0 17.44 11 32.32 26.44 38.077zM84.028 35.687c.539-.034.808-.539 1.279-.674.908-.269.605.303 1.043.741.37 0-.471.27-.539.27-.37.134-.336.067-.672.067-.135.168.201.875.269.875.269.404.437.135.403.74-.033.54.438.034.606.034 0 .337.504.606.538 1.01-.202.034-.706-.067-.807 0 .033.37.269.37.269.741.403 0-.337 1.077.403 1.077-.168.674-1.311.438-1.48-.202-1.11-.235-.538-1.043-.571-1.65-.034-.841-.774-1.11-.774-1.75-.572 0 .033-1.145.033-1.28zM75.383 37.808c-.1-1.111.572-1.684 1.01-2.66.74-.067 1.009.101 1.009.808.538 0 .1.606.807.337.168-.236.404-.303.706-.202.471 0 .606.269.942.269.337.673 1.38.471 1.312 1.65.774 0-.673.774-.673.606-.84.235-1.042-.606-1.412-.606 0 .774-.438-.135-.539-.135 0 .27-2.556.438-2.993.404.067-.303.134-.37-.169-.471z"/>
        <path fill="#666" fill-rule="nonzero" d="M50.457 10.605c22 0 39.862 17.91 39.862 39.895 0 21.984-17.862 39.895-39.862 39.895-21.999 0-39.86-17.877-39.86-39.895 0-22.018 17.861-39.895 39.86-39.895zm0-3.367C26.574 7.238 7.232 26.597 7.232 50.5s19.342 43.262 43.225 43.262c23.884 0 43.226-19.359 43.226-43.262S74.34 7.238 50.457 7.238zM66.806 9.124l1.883-3.838 1.918-3.805 2.354 3.535 2.355 3.569-4.272.27z"/>
        <path fill="#666" fill-rule="nonzero" d="M98.291 34.508l-3.196 1.078A46.525 46.525 0 0 1 97.551 50.5c0 25.99-21.125 47.133-47.094 47.133-25.968 0-47.093-21.142-47.093-47.133 0-25.99 21.125-47.133 47.093-47.133 7.132 0 13.893 1.65 19.948 4.511a12.27 12.27 0 0 1 2.321-2.626C65.998 1.919 58.463 0 50.457 0 22.605 0 0 22.624 0 50.5S22.605 101 50.457 101c27.853 0 50.458-22.624 50.458-50.5 0-5.589-.942-10.975-2.624-15.992z"/>
        <path fill="#454545" d="M14.332 34.038c-.096-.728-.274-1.13-.535-1.205-.541-.158-1.823.53-2.005.435-.835-.436-.522-.823-.863-.823-.797 0 6.642-13.92 9.265-13.92 1.75 0 2.613.173 2.59.517-.118.796-.118 1.325 0 1.588.216.477 1.004.634 1.142.948.252.573-.129.82-1.141.739-1.727 1.626-2.59 2.947-2.59 3.965 0 1.017-1.955 3.602-5.863 7.756zM79.426 22.991c.59.436 1.003.587 1.238.452.49-.28.886-1.68 1.08-1.744.894-.298.664-.288 1.191-.05 5.32 2.409 13.18 22.818 11.357 24.705-1.215 1.258-1.938 1.76-2.17 1.505-.49-.638-.872-1.006-1.143-1.103-.492-.177-1.153.281-1.474.162-.587-.217-.5-.662.26-1.334-.4-3.465-1.22-6.64-2.46-9.523-1.24-2.884-3.866-7.24-7.88-13.07z"/>
    </g>
</svg>
